<?xml version="1.0" encoding="UTF-8"?>
<svg id="_图层_2" data-name="图层 2" xmlns="http://www.w3.org/2000/svg" viewBox="0 0 209.11 153.53">
  <g id="_图层_2-2" data-name="图层 2">
    <g>
      <path d="m64.94,7.53c6.91,0,13.83,0,20.74,0,6.85,0,13.7.04,20.55-.02,7.08-.06,14.16.06,21.24,0,9.12-.09,18.23-.1,27.35-.12,4.44,0,8.87.08,13.31-.05,5.45-.15,10.89-.06,16.34-.16,2.12-.04,4.25-.32,6.37.04,4.61.79,8.08,4.14,9.17,8.66.54,2.21,0,4.38.05,6.56.09,4.37-.03,8.73-.08,13.1-.07,5.79-.2,11.59-.22,17.38-.05,13.8-.05,27.61-.07,41.41,0,5.66-.01,11.32-.03,16.98,0,.7.08,1.08.92,1.42.77.31,1.06,1.02,1.9-.06.53-.68,2.19.7,2.15,1.82-.09,2.41-.14,4.81-.03,7.22.04.94-1.27,1.92-2.13,1.62-.43-.15-.35-.55-.45-.87-.08-.27.06-.72-.44-.67-.4.04-.45.4-.44.72.02.52-.22.82-.73.8-.81-.02-.98.52-1.09,1.14-.4,2.36-1.52,4.29-3.27,5.92-2.47,2.3-5.33,3.49-8.72,3.39-2.13-.06-4.26-.03-6.4-.07-.72-.01-1,.27-1,.98.02,1.81-.02,3.63,0,5.44,0,.82-.23,1.16-1.15,1.15-5.42-.06-10.83-.08-16.25-.05-.9,0-1.51-.31-2.1-.93-1.87-1.97-3.78-3.91-5.65-5.89-.58-.61-1.23-.79-2.06-.78-3.63.04-7.27,0-10.9.02-.39,0-.9-.13-1.09.38-.16.43.25.59.52.79.3.22.29.53.28.85,0,1.36.01,2.73-.02,4.09-.02,1.03-.7,1.67-1.74,1.68-2.65.03-5.29.05-7.94.05-1.56,0-2.34-.79-2.38-2.35-.02-1.01-.03-2.03-.07-3.04-.02-.61-.04-1.2.61-1.54.2-.11.27-.32.18-.54-.1-.24-.34-.22-.54-.23-.91-.02-1.82-.05-2.72-.05-2.27.01-4.54.03-6.81.07-.36,0-.85-.12-1.01.33-.18.53.38.45.64.61.43.26.42.73.42,1.12.03,1.15.01,2.3-.04,3.45-.07,1.54-.85,2.22-2.4,2.2-1.4-.02-2.8,0-4.19-.01-.55,0-.96.07-1,.75-.04.66-.68.56-1.05.63-.45.08-.65-.37-.63-.78.02-.56-.28-.59-.73-.6-1.31-.03-2.04-.78-2.07-2.08-.03-1.19-.05-2.37-.06-3.56,0-.51-.1-1.09.64-1.24.19-.04.29-.21.24-.4-.1-.37-.4-.45-.74-.45-1.61,0-3.22-.09-4.82.04-2.85.22-5.69.05-8.55-.01-6.74-.14-13.48-.1-20.22-.07-2.79.01-5.59.1-8.37.06-3.72-.06-7.44-.15-11.16-.08-1.6.03-3.21-.06-4.82.05-.53.04-.62.21-.68.67-.28,2.33-.29,2.35,2.04,2.33,5.59-.04,11.18-.15,16.77-.11,3.8.03,7.61-.06,11.41-.06.91,0,1.2-.33,1.09-1.16,0-.07-.02-.15,0-.21.14-.36-.35-1.08.41-1.06.7.02.45.72.37,1.08-.16.72.2,1.43-.33,2.2-.91,1.32-2.01,1.75-3.55,1.6-1.28-.12-2.59.05-3.87-.03-1.09-.07-1.47.33-1.33,1.37.05.34.03.7,0,1.05-.1,1.4-1.08,2.41-2.63,2.37-3.32-.08-6.64-.08-9.96-.11-.93,0-1.6-.6-1.62-1.5-.01-.68-.21-1.33-.04-2.05.19-.83-.54-.96-1.14-.96-1.78-.03-3.56-.03-5.34.02-1.67.05-3.13-1.33-3.1-3.01,0-.31.03-.63,0-.94-.06-.52.2-1.38-.37-1.47-.71-.11-1.72-.4-2.16.7-.34.86-1,.94-1.84.87-1.46-.12-2.93-.09-4.4-.13-.61-.02-1.15-.09-1.45-.78-.19-.44-.69-.59-1.17-.52-1.55.23-3.11.28-4.67.15-.41-.03-.82.04-.83.56-.02.76-.52.82-1.07.82-1.57-.01-3.14-.04-4.71-.07-.17,0-.38-.11-.52-.04-1.23.58-1.68-.45-1.91-1.17-.21-.66-.53-.57-.93-.58-1.89-.07-3.76-.18-5.49-1.09-3.28-1.72-5.38-4.36-6.32-7.92-.15-.58-.33-.98-1.01-.94-.74.05-.62-.98-1.18-1.02-.66-.05-.31.93-.93,1.1-.78.2-2.34-.93-2.24-1.72.28-2.37.08-4.74-.04-7.11-.05-1.08.68-1.87,1.72-1.91.57-.02.96.08.94.77,0,.3,0,.7.45.68.42-.02.44-.37.45-.7,0-.44.16-.74.67-.75.81-.02,1.01-.49,1.02-1.25.06-3.66.1-7.32.1-10.99,0-15.27.07-30.53.15-45.8.03-5.93.17-11.87.21-17.8.03-5.02.06-10.05-.05-15.07-.05-2.14-.18-4.27.5-6.32,1.79-5.45,6.27-8.43,12.27-8.36,6.07.08,12.14.13,18.21.15,7.62.03,15.23,0,22.85,0v-.03Zm41.69.5s0,.08,0,.12c-4.05,0-8.09,0-12.14,0-7.51,0-15.02-.03-22.53-.03-10.14,0-20.27-.02-30.41.01-6.53.02-13.07-.2-19.6.1-5.47.24-10.07,5.02-10.09,10.48,0,2.38.05,4.75.03,7.13-.07,8.7-.17,17.4-.23,26.1-.13,18.09-.03,36.19-.28,54.29-.07,5.3-.2,10.59-.1,15.89.11,5.76,4.75,10.64,10.61,10.83,3.74.12,7.47.13,11.21.14,9.7.02,19.4.08,29.11.09,11.32.02,22.64,0,33.96,0,10.44,0,20.88-.02,31.32-.05,4.36-.01,8.72-.08,13.08-.09,6.14,0,12.28.02,18.42.02,8.8,0,17.61-.07,26.41-.02,3.11.02,6.15.02,8.8-1.95,2.01-1.5,3.58-3.28,4.2-5.79.48-1.95.53-3.92.53-5.92.02-6.43.1-12.85.12-19.28.03-9.85.02-19.71.06-29.56.02-7.06.15-14.12.11-21.18-.03-4.96.07-9.91.09-14.86.02-4.96.04-9.92.07-14.87,0-.98.16-1.97.03-2.93-.68-5.11-5.09-8.95-10.24-8.93-4.43.01-8.86.11-13.29.12-12.19.04-24.38.04-36.57.07-5.62.01-11.24.06-16.86.07-5.27.01-10.55,0-15.82,0Zm-41.27,133.76s0,0,0,.01c1.78,0,3.56-.08,5.33.03,1.37.08,1.08-.85,1.15-1.58.09-.87-.25-1.22-1.2-1.2-3.31.08-6.63.08-9.94.09-1.75,0-1.73,0-1.75,1.72,0,.74.25.96.97.95,1.81-.04,3.63-.01,5.44-.01Zm-.08-3.3c0-.07,0-.15,0-.22,4.42,0,8.85,0,13.27,0,.34,0,.69-.06,1.02-.15.24-.07.43-.29.43-.55,0-.37-.33-.28-.56-.29-.7-.04-1.39-.09-2.09-.09-4.36.03-8.71.07-13.07.12-4.49.05-8.99.12-13.48.17-.2,0-.45-.09-.52.19-.07.25.18.34.33.48.46.42,1.04.34,1.59.34,4.36,0,8.72,0,13.08,0Zm137.6-20.42h-.01c0,1.08-.02,2.16.01,3.24.01.36-.21.99.43.96.52-.03.62-.58.62-1.06,0-.7,0-1.39-.01-2.09-.02-1.53-.05-3.07-.09-4.6,0-.37-.16-.79-.53-.8-.5-.03-.41.48-.41.79-.02,1.19,0,2.37,0,3.56ZM7.05,122.71c.08-.13.17-.21.17-.3.07-2.67.13-5.34-.03-8.01,0-.16,0-.41-.22-.39-.18.02-.38.16-.53.29-.27.23-.21.57-.2.88.02,2.09.06,4.17.09,6.26,0,.51.12.96.72,1.28Zm106.92,11.1v-.02c-1.05,0-2.1-.01-3.14,0-.36,0-.87-.08-.9.46-.03.52.45.58.83.58,2.17.01,4.33,0,6.5,0,.36,0,.75-.08.75-.54,0-.5-.45-.47-.78-.47-1.08-.02-2.16,0-3.25,0Zm21.42.86s0,.01,0,.02c1.22,0,2.44,0,3.67,0,.34,0,.67-.07.66-.49-.01-.4-.36-.51-.68-.5-2.37.02-4.74.05-7.1.08-.33,0-.68.05-.69.47,0,.46.38.42.69.42,1.15,0,2.3,0,3.46,0Zm-75.93,8.03c.24.29.52.31.8.32,3.2.03,6.39.06,9.59.07.32,0,.87.12.88-.3,0-.49-.54-.27-.84-.27-3.17-.03-6.34-.03-9.51-.03-.29,0-.63-.12-.93.21Zm-49.52-28.84c-.09,2.95-.11,5.74.09,8.53.01.18.12.39.32.31.31-.12.29-.46.29-.72-.02-2.39-.06-4.77-.1-7.16,0-.31,0-.64-.6-.95Zm190.34,4.1s.03,0,.05,0c0-1.29,0-2.58,0-3.86,0-.23,0-.55-.35-.51-.25.03-.25.3-.25.51-.01,2.54-.03,5.08-.03,7.62,0,.23-.01.55.34.51.25-.03.25-.3.25-.51,0-1.25,0-2.5,0-3.76Zm-192.17.56s.05,0,.08,0c0,.8,0,1.6,0,2.41,0,.32-.02.69.39.74.45.05.46-.36.49-.65.12-1.64.03-3.27-.06-4.91-.02-.3-.09-.7-.52-.65-.32.04-.38.37-.39.66,0,.8,0,1.6,0,2.4Zm193.97-.8s-.05,0-.08,0c0-.83,0-1.66,0-2.5,0-.27.04-.61-.37-.61-.32,0-.38.26-.38.51-.03,1.7-.06,3.4-.07,5.1,0,.28.11.6.46.58.41-.02.44-.37.45-.69,0-.8,0-1.59,0-2.39Z"/>
      <path d="m77.07,130.47c-6.32,0-12.64-.01-18.96,0-7.37.02-14.73.07-22.1.09-4.37.01-8.74.1-13.1-.01-4.65-.12-8.57-3.72-8.75-8.32-.21-5.31.04-10.62.04-15.92,0-12.44.02-24.88.08-37.33.02-4.78.09-9.57.17-14.35.11-6.17-.01-12.35,0-18.53,0-5.59-.08-11.18.14-16.76.19-4.86,4.06-8.83,9.37-8.89,5.13-.06,10.26.1,15.4.06,3.24-.02,6.5.19,9.73-.05,3.79-.28,7.53.21,11.3.21,4.19,0,8.37-.04,12.56-.04,7.82,0,15.64.03,23.46,0,7.64-.02,15.29-.11,22.93-.13,11.21-.03,22.43,0,33.64-.08,2.62-.02,5.23-.23,7.85-.13,7.78.28,15.57,0,23.35-.05,2.24-.02,4.45,0,6.59.88,3.4,1.39,5.7,5.28,5.46,8.96-.2,3.06-.09,6.15-.1,9.22-.02,7.41,0,14.82-.04,22.23-.05,7.96-.18,15.92-.22,23.88-.03,5.83.01,11.66,0,17.49,0,5.41-.07,10.81-.05,16.22,0,3.91.15,7.82.12,11.72-.02,2.64-1.01,4.96-2.86,6.88-1.81,1.87-4.1,2.74-6.62,2.65-6.04-.22-12.08-.07-18.12-.08-9.53,0-19.07.07-28.6.09-14.81.03-29.62.05-44.43.07-6.08,0-12.16,0-18.24,0,0,0,0,.01,0,.02ZM16.57,47.17c-.21,20.13,16.67,36,36.2,35.91,19.57-.09,36.65-15.84,36.35-36.79-.27-18.36-15.39-36.33-38.59-35.13-17.51.91-33.95,15.92-33.96,36.01Zm139.89,35.68c2.08.08,3.5-.11,4.92-.23,3.94-.33,7.66-1.47,11.23-3.12,4.09-1.9,7.69-4.49,10.82-7.75,3.41-3.55,6.01-7.61,7.76-12.19,1.77-4.64,2.62-9.46,2.41-14.45-.22-5.32-1.55-10.34-4.02-15.04-3.17-6.04-7.73-10.76-13.63-14.24-3.53-2.08-7.25-3.61-11.27-4.24-4.95-.77-9.9-.82-14.86.22-4.98,1.04-9.51,3.03-13.57,6-5.87,4.29-10.14,9.86-12.78,16.71-2.14,5.54-2.75,11.22-2.02,17.04,1.11,8.83,5,16.23,11.65,22.19,3.65,3.27,7.81,5.62,12.42,7.17,3.75,1.26,7.61,2.06,10.96,1.92Zm-115.8,11.82s-.08,0-.11,0c0,.56,0,1.12,0,1.68,0,3.36-.02,6.71-.02,10.07,0,.4-.09.9.47,1.03.79.19,1.61-.44,1.56-1.27-.05-.82.36-1.24,1.05-1.48,1.68-.58,3.39.18,4.06,1.82.18.44.52.56.91.54.52-.03.42-.48.41-.81-.04-.94-.14-1.88-.18-2.82-.05-1.26.64-2.1,1.88-2.19,1.84-.13,3.69-.22,5.54-.26,1.63-.03,2.41.8,2.46,2.46.02.73.02,1.47.04,2.2.01.38-.03.95.34,1.02.57.11,1.14-.23,1.67-.5.42-.22.3-.56.2-.91-.28-1.05-.47-2.12-.81-3.14-.3-.88-.01-1.33.8-1.57.3-.09.62-.14.9-.27.72-.32,1.1-.07,1.32.66.33,1.1.72,2.18,1.06,3.28.16.51.43.65.94.5,1.21-.34,2.4-.75,3.55-1.26,1.08-.48,2.21-.64,3.37-.51,1.42.16,2.84.34,4.26.5.48.06,1.04.28,1.43.11.51-.22.1-.86.2-1.32.63-3.07,1.16-6.17,1.79-9.24.26-1.29,1.17-2.59,3.06-2.37,2.08.24,4.12.76,6.13,1.32,1.21.34,1.86,1.8,1.62,2.96-.61,2.9-1.2,5.8-1.77,8.7-.27,1.36-.11,1.52,1.24,1.6,1.1.07,1.17-.04,1.26-1.57.15-2.72.31-5.44.5-8.15.1-1.45,1.25-2.57,2.69-2.52,1.81.06,3.62.2,5.41.45,1.5.21,2.46,1.5,2.28,2.91-.35,2.71-.3,5.44-.53,8.15-.08.93.22,1.16,1.09.89.54-.17,1.08-.34,1.63-.32.86.03,1.11-.31.93-1.14-.58-2.62-1.1-5.26-1.71-7.87-.39-1.71.38-3.26,2.05-3.64,1.59-.36,3.21-.64,4.83-.84,1.98-.25,3,.6,3.33,2.57.08.52.21,1.03.29,1.54.32,2.07,1.03,4.05,1.29,6.14.1.83.48,1.42,1.55,1,.9-.36,1.87-.51,2.79-.83.4-.14.89-.37.66-.99-.49-1.3-.94-2.63-1.5-3.91-.94-2.18-1.93-4.33-2.93-6.48-.28-.61-.08-.86.48-1.09,1.36-.55,2.7-1.14,4.04-1.73,1.19-.52,1.37-.43,1.86.76,1,2.41,2.05,4.81,3.05,7.22.35.85.6.78,1.1.07,1.91-2.69,4.61-3.33,7.4-2.52,5.12,1.48,10.17,3.22,15.25,4.83,4.12,1.31,8.26,2.57,12.38,3.87.73.23.91,0,.9-.71-.01-1.46.09-2.93.09-4.39,0-4.19-.02-8.37-.03-12.56,0-.74-.27-1.06-1.08-1-2.71.21-5.41.3-8.14-.05-3.23-.42-6.42-1.06-9.46-2.18-4.5-1.65-8.5-4.2-11.99-7.5-4.06-3.85-7.07-8.42-9.07-13.64-.38-.98-.86-1.47-1.94-1.46-2.75.04-5.51.01-8.26.02-7.68.01-15.37.06-23.05.02-1.1,0-1.63.33-1.98,1.34-.91,2.61-2.24,5.01-3.8,7.3-3.81,5.56-8.67,9.86-14.76,12.79-3.69,1.77-7.52,3-11.57,3.5-5.3.64-10.53.21-15.64-1.32-.86-.26-1.06-.01-1.06.79.02,3.91,0,7.83,0,11.74Zm2.88-83.21c-.19-.29-.42-.25-.62-.25-6.61-.02-13.21-.08-19.82-.03-3.02.02-6.46,2.85-7.33,5.74-.74,2.45-.56,4.97-.57,7.47-.04,7.26-.1,14.53-.11,21.79,0,7.41-.13,14.81-.09,22.22.05,8.07-.09,16.14-.13,24.21-.03,6-.05,12.01-.07,18.01,0,4.04-.29,8.09.09,12.12.24,2.52,1.56,4.47,3.71,5.76,1.9,1.14,1.97,1.07,1.97-1.09,0-.8.26-1.13,1.1-1.11,2.2.05,4.4,0,6.61.04.63,0,1.02-.14,1.31-.77.7-1.55,2.01-2.27,3.67-2.36,1.85-.1,3.25.73,4.12,2.33.34.63.75.82,1.41.82,1.64-.01,3.29.02,4.93.03,2.32.02,2.35.02,2.38,2.42.01.78.33,1.08,1.06,1.07.31,0,.63.02.94.02,4.85,0,9.7.03,14.56.02,6.98,0,13.97-.03,20.95-.05,8.04-.02,16.08-.06,24.11-.07,12.23-.02,24.46-.02,36.69-.04,6.88,0,13.76-.01,20.64-.03,4.64-.01,9.28-.05,13.92-.06,2.37,0,4.76-.11,7.12.05,1.81.12,3.43-.33,4.89-1.21,3.06-1.85,4.27-4.74,4.24-8.23-.02-2.97-.06-5.93-.07-8.9-.02-4.92.06-9.83.09-14.75.05-10.89-.06-21.77-.01-32.66.03-5.97.14-11.94.12-17.91-.02-5.13.07-10.27.07-15.4,0-3.67-.27-7.35-.03-11,.3-4.62-3.54-8.54-7.95-8.61-6.6-.09-13.21-.04-19.81-.05-.17,0-.35,0-.38.28,1.17.42,2.34.85,3.52,1.27,2.81,1.01,5.45,2.36,7.89,4.06,5.19,3.63,9.24,8.25,12.02,13.96,1.86,3.83,3.14,7.84,3.54,12.08.45,4.9.05,9.73-1.41,14.49-1.52,4.95-3.94,9.4-7.25,13.33-.85,1.01-1.05,1.78-.72,3.04.89,3.4,1.52,6.87,2.38,10.28,1.03,4.09,2,8.19,2.89,12.31.13.61.31,1.19.77,1.68,2.7,2.84,3.13,6.18,1.26,9.61-1.47,2.69-5.33,4.25-8.32,3.39-2.28-.65-4.25-2.02-6.57-2.65-4.34-1.17-8.62-2.59-12.91-3.96-.91-.29-1.11,0-1.11.83.01,2.55,0,5.1-.02,7.64,0,.58.42.66.82.76,2.74.67,5.49,1.32,8.23,2,2.84.71,5.68,1.42,8.5,2.17,1.51.4,2.33,1.62,2.1,3.04-.2,1.27-1.23,2.08-2.75,2.03-1.15-.04-2.3-.16-3.44-.3-4.22-.54-8.45-.92-12.69-1.33-.77-.07-1.17.15-1.54.85-1.07,2.01-2.73,3.26-5.09,3.3-2.93.05-5.87.03-8.8.03-4.08,0-8.17-.01-12.25-.04-.8,0-1.28.23-1.25,1.13,0,.24-.11.48-.11.72,0,.65-.28.94-.96.92-.94-.03-1.88-.03-2.83,0-.73.02-1.13-.25-1.09-1.03.04-.74-.38-.94-1.03-1-.54-.05-1.19.19-1.61-.27-.44-.48-.94-.52-1.51-.52-12.55-.03-25.09-.09-37.64-.11-7.47-.01-14.94.05-22.41.05-6.67,0-13.33-.01-20-.03-1.73,0-3.15-.74-4.36-1.96-1.45-1.46-1.7-3.32-1.72-5.22-.04-2.55-.02-5.1.02-7.65.01-.76-.14-1.12-1.01-.91-2.81.68-5.64,1.3-8.45,1.98-.43.1-.86.32-1.21.59-1.24.96-2.65,1.38-4.18,1.45-3.94.19-6.87-2.28-7.83-5.67-.79-2.79.06-5.32,2.13-7.38.42-.42.64-.85.72-1.45.55-4.22,1.14-8.43,1.7-12.65.68-5.12,1.33-10.23,2.01-15.35.06-.46.1-.89-.22-1.29-2.64-3.35-4.48-7.1-5.84-11.14-1.68-5.03-2.14-10.19-1.59-15.38.59-5.51,2.58-10.64,5.57-15.3,4.69-7.32,11.15-12.49,19.4-15.35.84-.29,1.68-.59,2.53-.9Zm42.6,112.95s0,0,0,0c1.78,0,3.56,0,5.34,0,7.68-.01,15.36-.03,23.04-.04,3.88,0,7.76,0,11.64-.02.49,0,1.11.06,1.15-.74.04-.73-.43-.78-1-.9-3.19-.63-5.41-2.49-6.24-5.63-.84-3.18.13-5.94,2.66-8.07,1.89-1.59,4.11-1.98,6.5-1.49.39.08.81.21.95-.31.12-.44.17-.92-.35-1.2-.18-.1-.37-.2-.56-.29-1.5-.72-2.69-1.75-3.4-3.28-.21-.45-.49-.5-.98-.53-1.18-.06-2.15.54-3.21.83-2.39.64-4.78,1.31-7.2,1.84-1.47.32-2.86.87-4.34,1.15-2.27.43-4.6.39-6.84.89-2.31.51-4.66.62-6.95.42-4.72-.4-9.42-1.09-14.13-1.66-1.8-.22-3.61-.42-5.41-.63-.65-.07-.87.14-.49.75.09.15.16.31.25.46,1.37,2.51.95,5.58-1.31,7.27-1.34,1-2.13,1.92-1.94,3.69.12,1.16-1.14,2.08-2.24,1.96-1.21-.13-1.94-1.18-1.74-2.49.04-.24.01-.49.06-.73.14-.72-.12-1.13-.79-1.49-2.91-1.6-3.97-4.55-2.83-7.67.07-.19.22-.4.08-.59-.21-.29-.46-.05-.65.05-2.01,1.01-4.25,1.28-6.34,2.06-.72.27-1.49.36-2.24.52-2.55.54-5.07.1-7.59-.24-1.35-.18-1.47-.1-1.48,1.24-.01,2.2-.03,4.4,0,6.61.01.88-.35,1.19-1.19,1.15-.84-.05-1.68-.03-2.51-.04-1.22-.01-1.39-.17-1.39-1.4,0-2.06.03-4.12,0-6.18-.01-1.06-.43-1.25-1.4-.82-.56.25-.49.71-.52,1.14-.18,3.04-.02,6.08.07,9.11.08,2.66,2.1,5,4.87,5.06,1.46.03,2.92.12,4.39.13,5.59.02,11.18.1,16.76.12,6.49.02,12.98,0,19.47,0ZM147.81,11.44c-28.42-.43-56.79-.11-85.17-.03.12.21.24.27.37.31,2.87.89,5.66,2,8.26,3.49,6.53,3.74,11.48,9,14.84,15.74.32.64.74.96,1.46.94,1.54-.02,3.07,0,4.61,0,10.12-.01,20.23-.02,30.35-.05.73,0,1.36-.14,1.77-.98,1.08-2.19,2.33-4.3,3.86-6.2,4.82-5.97,10.72-10.42,18.15-12.65.51-.15,1-.38,1.5-.57Zm-42.7,21.13c-5.59,0-11.18,0-16.77,0-1.32,0-1.39.19-.89,1.49,1.6,4.14,2.41,8.44,2.45,12.86.03,3.32-.54,6.6-1.37,9.81-.26,1.01,0,1.19.95,1.19,10.02-.04,20.05-.03,30.07-.08,2.48-.01,2.45.44,1.83-2.41-.65-3.01-1.08-6.05-.98-9.13.13-4.18.91-8.25,2.4-12.15.52-1.35.5-1.57-1.13-1.57-5.52.01-11.04,0-16.55,0Zm40.86,91.95c4.39,0,7.95.04,11.51-.15,1.63-.09,2.99-.75,3.91-2.11.85-1.25.72-1.41-.77-1.63-2.21-.32-4.46-.3-6.62-.9-1.61-.45-2.8-1.47-3.2-3.14-.37-1.6.03-3.04,1.28-4.2,1.33-1.23,2.92-1.23,4.53-.88,1.57.34,3.11.81,4.65,1.25.8.23,1.2.04,1.19-.86-.02-2.37-.05-4.75,0-7.12.02-.97-.4-1.34-1.25-1.59-4.78-1.42-9.55-2.88-14.33-4.33-2.71-.82-5.38-1.74-8.14-2.37-.67-.15-.95-.03-.67.7.45,1.17.43,2.33.26,3.59-1.02,7.46-1.93,14.94-2.92,22.41-.12.93.08,1.21,1.03,1.24,3.46.08,6.91.13,9.53.09Zm17.27-31.58h-.09c0,2.82.02,5.65-.01,8.47,0,.73.19,1.13.96,1.35,2.81.8,5.61,1.68,8.41,2.53.7.21.83-.06.74-.74-.2-1.62.7-2.53,2.31-2.42.42.03.83.13,1.24.19.7.09,1.12-.04,1.33-.89.99-3.95,4.99-6.4,9.02-5.61,1.44.28,1.48.23,1.14-1.24-.84-3.59-1.65-7.19-2.5-10.78-.74-3.12-1.48-6.24-2.26-9.35-.31-1.24-.42-1.23-1.34-.41-2.78,2.48-5.86,4.49-9.23,6.06-2.73,1.27-5.56,2.2-8.52,2.75-.86.16-1.22.61-1.21,1.51.04,2.86.01,5.72.01,8.58Zm-123.43,1.7s.06,0,.09,0c0-4.02-.03-8.03.02-12.05.01-.9-.33-1.33-1.14-1.59-1.42-.47-2.78-1.12-4.07-1.87-3.24-1.88-6.31-3.99-8.92-6.7-.18-.19-.34-.52-.67-.41-.3.1-.3.45-.34.71-.19,1.28-.37,2.55-.54,3.83-.53,4-1.06,8.01-1.58,12.01-.38,2.9-.75,5.81-1.1,8.72-.15,1.24,0,1.39,1.08.99,2.72-1,6.89.56,8.08,2.77,1.03,1.91,2.23,2.73,4.41,2.21.99-.24,1.74.5,1.94,1.5.19.96-.17,1.67-1.04,2.18-.79.46-1.64.27-2.46.32-1.35.09-1.58.26-1.91,1.58-.16.63.1.78.63.66,2.21-.49,4.43-.98,6.63-1.48.61-.14.89-.51.88-1.2-.03-4.05-.02-8.1-.02-12.15Zm137.12,27.03c.95.2,1.21-.16.94-1.05-.21-.72.02-1.41.42-1.99.46-.68.16-.92-.45-1.09-.27-.07-.54-.14-.81-.21-2.74-.67-5.49-1.33-8.23-2.01-4.4-1.09-8.78-2.22-13.18-3.28-1.51-.37-3.16.54-3.79,1.94-.76,1.69-.37,3.32.99,4.41,1.24.99,2.76.9,4.18,1.14,3.51.61,7.07.81,10.6,1.21,3.12.36,6.26.43,9.35.93Zm-152.31-8.97c3.96-.11,6.91-2.85,7.02-7.64.04-1.6-.86-3.24-2.16-4.46-1.43-1.33-3.14-1.91-5.05-1.92-3.56-.01-6.84,3.3-6.77,7.01.08,4.11,2.97,6.84,6.96,7Zm167.8-9.52c.03-3.71-2.83-6.56-6.44-6.75-4.22-.22-7.4,3.09-7.33,7.22.06,3.41,3.05,6.76,6.98,6.78,3.48.02,6.96-3.07,6.78-7.25Zm-56.86,10.86c.35-.36.37-.74.42-1.13.39-2.97.87-5.93,1.16-8.91.16-1.65,1.06-3.41-.29-5-.08-.09-.05-.27-.07-.41-.33-2.34-2.18-4.05-4.6-4.27-2.66-.24-4.76,1.01-5.41,3.43-.28,1.06-.17,2.29-.06,3.33.2,1.78,1.6,3.02,3.36,3.48.82.22,1,.54.96,1.27-.08,1.36-.11,2.71-.01,4.08.1,1.43.08,1.43,1.47,1.43,2.32.01,2.38.06,2.87,2.34.02.09.1.17.21.36Zm-48.88-9.34c.9.29,1.24-.26,1.41-1.29.46-2.79,1.04-5.55,1.56-8.33.27-1.42-.18-2.29-1.53-2.63-1.76-.44-3.53-.86-5.35-.97-1.37-.08-1.93.34-2.24,1.65-.25,1.09-.47,2.18-.68,3.28-.37,1.88-.72,3.76-1.09,5.64-.13.64.15.99.74,1.17,2.27.69,4.55,1.35,7.17,1.48Zm20.76.01c2.25-.38,4.52-.69,6.66-1.63.54-.24.63-.49.51-1.03-.62-2.75-1-5.55-1.75-8.27-.33-1.19-.83-1.62-2.09-1.52-1.57.12-3.09.49-4.62.85-1.57.37-2.1,1.15-1.78,2.71.52,2.59,1.11,5.17,1.59,7.77.17.91.54,1.31,1.48,1.12Zm-9.93.93c.8-.04,1.6-.07,2.4-.12.47-.03.8-.24.83-.76.19-2.96.4-5.92.56-8.88.05-.88-.44-1.49-1.31-1.64-1.82-.32-3.66-.58-5.51-.49-.98.05-1.67.56-1.76,1.6-.24,2.88-.44,5.77-.66,8.66-.05.67.22,1.02.89,1.17,1.51.35,3.04.4,4.57.45Zm-26.18-1.9c-3.1.02-5.25,2.15-5.23,5.17.02,2.87,2.41,5.24,5.29,5.23,2.86,0,5.2-2.46,5.2-5.44,0-2.75-2.35-4.97-5.26-4.95Zm56.14,8.44s0,0,0,0c-1.78,0-3.56.04-5.34-.02-.73-.02-1.08.26-1.28.92-.43,1.42-.31,2.82.06,4.22.23.86.76,1.25,1.67,1.25,3.38-.01,6.76,0,10.14,0,.48,0,.94-.09,1.15-.57.7-1.57,1.01-3.16.41-4.85-.25-.7-.63-.99-1.38-.97-1.81.04-3.63.01-5.44.01Zm-93.46,17.52c.23.23.53.15.78.15,3.14.02,6.29-.03,9.43.05,1.28.04,1.06-.74,1.09-1.48.03-.82-.04-1.4-1.15-1.36-2.09.07-4.19-.02-6.28.02-.58,0-.89-.18-1.11-.71-.59-1.43-1.61-2.39-3.23-2.4-1.64,0-2.74.89-3.35,2.38-.23.55-.56.8-1.19.78-2.16-.05-4.33-.02-6.5-.07-.71-.02-1.11.22-.98.95.11.63-.55,1.57.84,1.7,2.41.22,4.82.08,7.22.16,1.01.04,2.03,0,3.04,0-1.66-1.3-2.16-2.19-1.83-3.49.28-1.12,1.28-1.98,2.35-2.04,1.06-.06,2.14.59,2.52,1.52.61,1.5.33,2.16-1.64,3.84Zm91.15-31.79c.03-.06.09-.14.07-.18-1.02-3.01-2.32-5.9-3.58-8.81-.22-.51-.59-.51-1.03-.32-1.03.42-2.07.83-3.11,1.23-.65.25-.81.58-.5,1.28,1.13,2.51,2.16,5.07,3.29,7.58.35.78.58,1.66,1.35,2.51-.21-3.86.41-4.38,3.52-3.28Zm10.11,19.66q-1.23,1.69-3.29,1.73c-.07,0-.14,0-.21,0-.64-.05-.87.28-.86.88.01,2.09,0,4.18.01,6.27,0,.37.08.71.54.76.8.1,1.59,0,2.39-.11.37-.05.36-.34.39-.63.34-2.51.69-5.03,1.02-7.54.05-.39,0-.79,0-1.37Zm-9.32-6.23c1.04.03,2.08.09,3.13.04.66-.04,1.09-.17,1.12-.89.03-.76.39-1.61-.65-2.08-2.05-.92-6.03.24-7.28,2.15-.38.58-.23.8.44.79,1.08-.02,2.16,0,3.24,0Zm2.31,10.93s-.03,0-.04,0c0,.73,0,1.46,0,2.19,0,.67.45.68.93.67.44-.02.96.08.96-.62-.01-1.49.13-2.97-.02-4.46-.06-.59-.31-.77-.87-.75-.54.02-.97.1-.96.79.02.73,0,1.46,0,2.19Zm-81.46-12.31c-.12-.46.12-1.01-.27-1.46-.54-.6-2.14-.7-2.82-.17-.43.34-.62,2.18-.29,2.67.16.24.35.19.53.09.75-.41,1.5-.23,2.19.1.6.29.65,0,.66-.46,0-.24,0-.49,0-.76Zm133.39,11.89c1.11,0,1.85-.69,1.84-1.7,0-.93-.8-1.72-1.73-1.74-.93-.02-1.77.84-1.77,1.81,0,.92.73,1.63,1.67,1.63Zm-145.13,5.15c0-.87-.87-1.74-1.74-1.75-1-.02-1.8.77-1.81,1.76,0,.92.81,1.75,1.72,1.74,1.02,0,1.84-.79,1.83-1.75Zm89.79-7.7c-.59,0-1.18,0-1.78,0-.23,0-.53-.1-.65.18-.13.28.13.44.29.61,1.06,1.1,2.4,1.62,3.89,1.82.46.06.68-.16.74-.65.22-1.77.06-1.96-1.76-1.96-.24,0-.49,0-.73,0Zm-61.56-15.42c-.14-.54-.36-1.34-.58-2.15-.18-.68-.63-.7-1.22-.58-.65.13-.78.49-.62,1.05.23.8.48,1.6.73,2.39.14.44.4.62.87.41.4-.18.94-.19.81-1.13Zm-18.42,12.61c1.82.04,2.01-.15,1.87-1.51-.05-.47-.13-.74-.69-.46-.54.27-1.12.32-1.72.12-.33-.11-.88-.68-.97.24-.06.63-.35,1.39.68,1.55.38.06.76.07.85.07Zm.03-2.54c.82-.04,1.38-.36,1.35-1.1-.02-.67-.49-1.18-1.21-1.17-.75,0-1.23.41-1.21,1.24.01.78.62.89,1.08,1.03Zm78.58-13.46c.59-.1,1.09-.36,1.05-1.04-.04-.69-.45-1.21-1.19-1.17-.66.03-1.13.47-1.07,1.15.05.66.5,1.03,1.21,1.06Zm-78.45,6.21c.31.02.65.07,1,.07.26,0,.6.1.71-.26.09-.33-.19-.49-.42-.64-.71-.47-1.5-.49-2.3-.33-.41.08-.66.39-.63.83.04.53.44.43.78.41.28-.01.55-.05.86-.08Z"/>
      <path d="m46.51,27.93c0-2.96.01-5.93-.01-8.89,0-.53.2-.74.69-.84,3.74-.77,7.47-.78,11.21-.01.58.12.69.49.69.99-.03,5.86-.06,11.73-.06,17.59,0,.88-.4,1.09-1.11.74-3.5-1.69-6.95-1.5-10.37.19-.9.45-1.03-.06-1.03-.77,0-3,0-6,0-9,0,0,0,0,0,0Zm7.36-9.52c-1.33-.16-2.57,0-3.82.13-3.05.33-2.57.06-2.68,2.94-.03.86.33.98,1.09.85,2.45-.41,4.91-.49,7.39-.22,3.12.34,2.35.43,2.47-2.28.03-.63-.24-.93-.88-1.06-1.2-.25-2.41-.35-3.57-.36Z"/>
      <path d="m64.4,47.11c.11.07.26.16.41.24,5.08,2.91,10.17,5.83,15.25,8.73.5.29.8.52.56,1.22-1.22,3.52-3.36,6.48-5.69,9.31-.28.34-.57.47-.99.2-3.84-2.48-7.85-4.66-11.83-6.88-1.19-.66-2.38-1.32-3.54-2.02-.89-.54-.85-.79.01-1.35,2.81-1.8,4.65-4.26,5.06-7.66.05-.42.11-.83.19-1.24.05-.29.16-.54.58-.54Zm14.47,12.17c.06-.53-.25-.6-.58-.63-.63-.04-1.25-.05-1.88-.1-.71-.06-1.16.23-1.53.84-.65,1.03-1.35,2.03-2.08,3-1.51,2-1.51,1.97.69,3.23.66.38,1.05.26,1.52-.27,1.49-1.68,2.66-3.56,3.67-5.56.09-.18.15-.39.2-.51Zm-1.2-1.4c.42,0,.84,0,1.26,0,.4,0,.67-.2.78-.58.12-.41-.09-.65-.45-.83-.55-.29-1.13-.56-1.63-.92-.6-.43-.85-.15-1.12.36-.89,1.68-.71,1.99,1.16,1.97Z"/>
      <path d="m47.27,56.88c0,.38-.31.52-.58.67-1.85,1.04-3.71,2.07-5.55,3.12-2.96,1.69-5.92,3.37-8.85,5.1-1.6.94-1.76.95-2.92-.5-2.02-2.52-3.52-5.32-4.54-8.39-.15-.44-.07-.69.36-.93,3.9-2.17,7.78-4.36,11.66-6.54,1.34-.75,2.67-1.51,4-2.29.65-.38,1-.34,1.05.53.24,3.59,1.81,6.46,4.74,8.57.64.46.62.5.63.66Zm-19.94-1.16c-.78-.07-1.63,1.07-1.4,1.81.7,2.25,1.89,4.23,3.24,6.15,1.95,2.77,1.2,2.1,3.97.74.54-.26.71-.58.22-1.11-.49-.53-.89-1.16-1.34-1.73-1.14-1.43-1.62-3.39-3.49-4.25-.4-.18-.64-.63-.77-1.09-.07-.23-.14-.48-.44-.52Z"/>
      <path d="m59.37,47c.05,3.46-2.97,6.54-6.87,6.32-3.42-.19-6.37-2.79-6.15-6.91.19-3.48,3.21-6.23,6.81-6.09,3.57.14,6.31,3.09,6.21,6.68Zm-6.59,5.64c3.41,0,5.92-2.57,5.91-6.08,0-2.89-2.77-5.56-5.72-5.54-3.69.02-5.85,2.53-5.99,5.91-.13,3.17,2.53,5.71,5.79,5.71Z"/>
      <path d="m185.58,55.88c-.11.39-.21.79-.35,1.19-1.16,3.27-3.21,6.02-5.22,8.78-.23.32-.47.66-.91.23-1.62-1.6-3.75-2.39-5.66-3.52-3.12-1.84-6.29-3.61-9.42-5.44-.95-.55-.93-.67-.02-1.36,2.73-2.08,4.32-4.77,4.48-8.26.05-1.2.38-1.34,1.41-.75,4.79,2.72,9.57,5.44,14.37,8.16.27.15.58.23.88.33.29.11.47.29.46.64Zm-8.53,2.47c-.63,0-1.25.02-1.88,0-.42-.02-.74.11-1.01.42-.44.54-.88,1.08-1.34,1.6-.4.44-.37.78.16,1.08,2,1.13,3.99,2.28,5.99,3.42.26.15.49.21.77,0,.79-.56,1.25-1.78.99-2.74-.11-.4-.24-.8-.31-1.21-.51-3.16-.58-2.54-3.37-2.56Zm.21-.68c.43-.04,1.02-.11,1.61-.14.55-.02.77-.27.63-.8-.34-1.28-.67-2.55-1.03-3.82-.1-.34-.29-.69-.7-.68-.36,0-.49.33-.6.64-.38,1.04-.8,2.06-1.29,3.07-.85,1.73-.76,1.8,1.39,1.73Zm4.15.73c.15.75.28,1.5.44,2.25.07.31.3.6.55.22.92-1.4,1.7-2.88,2.05-4.53.12-.57-.46-.73-.87-.88-.48-.18-.57.19-.67.55-.18.66-.62,1.16-1.12,1.59-.25.22-.46.43-.39.79Zm.68-3.12c-.01-.68-.81-1.53-1.33-1.37-.75.23-.09.75-.14,1.13-.03.23.03.48.11.71.13.37.08,1,.55.99.55-.01.66-.62.78-1.1.03-.13.03-.28.04-.36Z"/>
      <path d="m135.83,66.76c-.39-.04-.64-.26-.89-.52-2.42-2.58-4.05-5.64-5.4-8.88-.27-.65-.1-1.01.5-1.36,4.58-2.63,9.15-5.29,13.72-7.94.63-.37,1.25-.76,1.89-1.12.49-.27.83-.3.89.44.28,3.87,1.98,6.9,5.32,8.97.81.5.76.92-.14,1.46-1.76,1.05-3.56,2.04-5.35,3.05-3.17,1.81-6.35,3.62-9.52,5.43-.33.19-.63.44-1.02.45Zm.03-8.12s0-.05,0-.07c-1.22,0-2.44-.02-3.67,0-1.2.02-1.25.11-.75,1.16,1,2.09,2.3,3.98,3.8,5.74.39.45.74.51,1.27.25,1.79-.87,3.47-1.95,5.18-2.96,1.34-.79,1.32-.81.34-2.04-.09-.11-.16-.23-.23-.35-.76-1.17-1.66-1.98-3.22-1.75-.89.13-1.81.02-2.72.02Zm-.9-.8s0-.02,0-.03c1.29,0,2.58,0,3.87,0,.64,0,.78-.23.49-.84-.57-1.19-1.24-2.33-1.56-3.64-.15-.64-.61-.59-1.05-.33-1.96,1.12-3.9,2.27-5.87,3.38-.37.21-.49.45-.37.85.13.42.38.61.85.6,1.22-.02,2.43,0,3.65,0Z"/>
      <path d="m163.58,27.66c0,2.9,0,5.8,0,8.7,0,1.06-.24,1.27-1.17.77-1.97-1.07-4.07-1.09-6.21-1.01-1.39.05-2.55.64-3.74,1.22-.99.48-1.12.41-1.14-.65-.11-5.2-.1-10.39.04-15.59.02-.66.07-1.36-.11-1.98-.24-.84.17-1.11.81-1.22,3.5-.6,7-.65,10.52-.15.84.12,1.07.49,1.05,1.32-.05,2.86-.02,5.73-.02,8.59h-.03Zm-.69-4.78c0-1.08.02-2.17,0-3.25-.01-.6-.19-1.04-.93-1.15-2.92-.45-5.84-.49-8.76,0-.58.1-.97.32-.97.99,0,2.31-.03,4.61-.04,6.92,0,.41.12.67.62.57,3-.61,6.02-.78,9.05-.17.68.14,1.07-.12,1.05-.88-.02-1.01,0-2.03,0-3.04Z"/>
      <path d="m157.36,53.19c-3.98.16-6.7-3.23-6.68-6.2.03-3.93,2.78-6.76,6.79-6.88,3.37-.09,6.54,3.16,6.43,6.56-.13,3.88-3.06,6.49-6.54,6.52Zm-5.89-6.46c-.1,3.67,2.99,5.78,5.69,5.83,3.43.06,6.02-2.93,5.92-6.11-.1-3.24-2.56-5.62-5.71-5.54-3.5.08-5.99,2.53-5.9,5.82Z"/>
      <path d="m104.64,54.47c-4.2-.02-7.48-3.56-7.5-7.36-.02-4.92,3.66-8.05,8.08-8.08,4.08-.03,7.62,3.67,7.47,7.76-.16,4.55-3.52,7.53-8.05,7.67Zm.65-7.12c-2.33,0-4.31.01-6.3,0-.88,0-1.19.33-.95,1.22.82,3.03,3.59,5.24,6.88,5.16,3.28-.08,5.99-2.19,6.8-5.31.22-.87-.04-1.06-.82-1.05-1.98.01-3.97-.16-5.61-.01Zm2.34-.63c0-.05,0-.1,0-.16,1.08,0,2.16-.02,3.24,0,.87.03,1.13-.41.97-1.17-.27-1.24-.76-2.37-1.63-3.34-3.23-3.6-10.18-2.87-12.02,2.71-.55,1.66-.31,1.97,1.41,1.96,2.68-.02,5.35,0,8.03,0Z"/>
      <path d="m129.78,115.39c0,1.07-.81,1.9-1.83,1.9-1.08,0-2.1-1.02-2.08-2.08.03-1.02,1.02-1.98,2.06-1.99.95,0,1.85,1.05,1.85,2.17Zm-3.01-.32c0,.96.44,1.41,1.14,1.39.66-.02,1.06-.58,1.05-1.21-.01-.64-.5-1.15-1.12-1.15-.61,0-1.08.43-1.06.96Z"/>
      <path d="m106.12,43.38c0,.49-.03.98,0,1.46.07.89-.3,1.27-1.21,1.26-.92,0-.99-.56-.97-1.25.03-1.18.07-2.37.07-3.55,0-.56.21-.86.81-.81.53.04,1.21-.17,1.26.69.04.73,0,1.46,0,2.19,0,0,0,0,.01,0Zm-1.09,1.15c.31-.76.23-1.54.05-2.32-.27.76-.21,1.54-.05,2.32Z"/>
    </g>
  </g>
</svg>